PathFileType	4	(X/Y/Z)	/Users/itak/Documents/Research/Walk-IL/dataset/trc/00018_00004.trc
DataRate	CameraRate	NumFrames	NumMarkers	Units	OrigDataRate	OrigDataStartFrame	OrigNumFrames
100.000000	100.000000	4	54	mm	100.000000	276	552
Frame#	Time	RPSI			LPSI			L3			STRN			T10			C7			CLAV			RBAK			LBAK			LSHO			LUPA			LAEL			LAOL			LWPS			LFRA			LIFD			LHPS			LHTS			RSHO			RUPA			RAEL			RAOL			RWTS			RWPS			RFRA			RIFD			RHTS			RHPS			RBHD			LFHD			RFHD			LBHD			LHIP			RHIP			RASI			LASI			LKNE			LTHI			LANK			LTIP			LTOE			LMT1			LMT5			LHEE			RKNE			RTHI			RANK			RTIP			RTOE			RMT1			RMT5			RHEE			LWTS			*53			
		X1	Y1	Z1	X2	Y2	Z2	X3	Y3	Z3	X4	Y4	Z4	X5	Y5	Z5	X6	Y6	Z6	X7	Y7	Z7	X8	Y8	Z8	X9	Y9	Z9	X10	Y10	Z10	X11	Y11	Z11	X12	Y12	Z12	X13	Y13	Z13	X14	Y14	Z14	X15	Y15	Z15	X16	Y16	Z16	X17	Y17	Z17	X18	Y18	Z18	X19	Y19	Z19	X20	Y20	Z20	X21	Y21	Z21	X22	Y22	Z22	X23	Y23	Z23	X24	Y24	Z24	X25	Y25	Z25	X26	Y26	Z26	X27	Y27	Z27	X28	Y28	Z28	X29	Y29	Z29	X30	Y30	Z30	X31	Y31	Z31	X32	Y32	Z32	X33	Y33	Z33	X34	Y34	Z34	X35	Y35	Z35	X36	Y36	Z36	X37	Y37	Z37	X38	Y38	Z38	X39	Y39	Z39	X40	Y40	Z40	X41	Y41	Z41	X42	Y42	Z42	X43	Y43	Z43	X44	Y44	Z44	X45	Y45	Z45	X46	Y46	Z46	X47	Y47	Z47	X48	Y48	Z48	X49	Y49	Z49	X50	Y50	Z50	X51	Y51	Z51	X52	Y52	Z52	X53	Y53	Z53	X54	Y54	Z54	

277	2.76	48.42156600952148	1063.580444335938	-136.4453887939453	22.02377891540527	1060.110229492188	-297.0447082519531	33.9720458984375	1128.967651367188	-221.8801727294922	272.4714965820312	1314.394653320312	-252.8986206054688	25.67077255249023	1272.5361328125	-217.0905914306641	75.31794738769531	1538.83935546875	-236.7791748046875	233.3008270263672	1442.346435546875	-253.08447265625	34.53253555297852	1403.556762695312	-147.9182281494141	45.82276153564453	1497.736083984375	-331.5334777832031	139.1598510742188	1501.857543945312	-418.4142761230469	95.30664825439453	1379.030151367188	-491.0700988769531	84.52611541748047	1161.6865234375	-520.15625	42.28764343261719	1149.3759765625	-424.0559997558594	87.91422271728516	893.6190185546875	-511.6016235351562	92.50907897949219	1045.476440429688	-529.3887329101562	194.2972259521484	720.6341552734375	-468.2966918945312	118.0423126220703	803.1065673828125	-516.6522827148438	187.1576385498047	811.52880859375	-499.6667785644531	178.5335083007812	1523.7529296875	-74.97469329833984	179.7388610839844	1451.411987304688	-0.5817391872406006	173.1954956054688	1179.747924804688	29.18163871765137	148.4226531982422	1150.900756835938	-63.53754043579102	318.6339111328125	936.254150390625	-38.91181945800781	273.2955627441406	914.23974609375	37.65310287475586	197.9221649169922	1105.263305664062	39.16261291503906	357.4275207519531	753.2877807617188	-59.94043350219727	367.0691528320312	831.2333984375	-35.01113510131836	323.98876953125	820.2437744140625	25.30178451538086	141.8295745849609	1715.217529296875	-166.2843627929688	312.0820922851562	1729.099609375	-291.4086608886719	314.3173217773438	1728.087158203125	-192.4877319335938	130.1058959960938	1721.251831054688	-310.2965087890625	103.0860214233398	964.6135864257812	-421.4956665039062	170.6631469726562	953.0083618164062	-52.18498229980469	263.7053527832031	984.0570068359375	-138.8086242675781	224.1304321289062	1006.747131347656	-369.0435485839844	289.33740234375	541.6943359375	-402.4618225097656	215.6684875488281	668.375732421875	-430.7755737304688	113.4875793457031	63.49868392944336	-392.9686889648438	178.5630493164062	306.747314453125	-414.4381408691406	333.5382690429688	51.50314331054688	-340.0239562988281	276.2981872558594	62.0875358581543	-319.6667785644531	235.8222503662109	51.46254348754883	-417.1845703125	48.90893936157227	78.52930450439453	-336.6752624511719	183.5526275634766	517.2064819335938	-114.0381088256836	194.5230255126953	786.5639038085938	-61.53042221069336	53.72319030761719	39.28618240356445	-155.0121612548828	156.5053253173828	391.9637145996094	-118.8648834228516	282.6744995117188	41.69624710083008	-209.0816650390625	218.0712890625	45.67343139648438	-234.8183135986328	206.0460205078125	37.74090576171875	-138.3797454833984	-4.879400730133057	42.38518905639648	-197.0188903808594	170.5973205566406	904.9087524414062	-481.0559387207031	nan	nan	nan	
278	2.77	42.65209579467773	1063.737060546875	-136.1168518066406	16.03942108154297	1060.281127929688	-296.6670227050781	27.99042510986328	1129.169189453125	-221.5887451171875	266.3131103515625	1314.737670898438	-252.405517578125	19.39825248718262	1272.736450195312	-217.1084442138672	69.21849060058594	1539.031982421875	-236.6360778808594	227.0892181396484	1442.653564453125	-252.6040496826172	28.06510543823242	1403.721435546875	-147.9734344482422	39.75618743896484	1497.923828125	-331.5474243164062	133.2942047119141	1502.085205078125	-418.1612548828125	90.1519775390625	1379.157958984375	-491.0714721679688	80.87599945068359	1161.761474609375	-520.600830078125	38.04873657226562	1149.010498046875	-424.7992858886719	86.31816101074219	893.7131958007812	-512.3206787109375	89.83641815185547	1045.620483398438	-529.933349609375	193.8603363037109	721.5653686523438	-468.5321960449219	117.2118682861328	803.4548950195312	-517.2982788085938	186.1470184326172	812.4246826171875	-499.8516540527344	171.8318481445312	1523.963745117188	-74.61277008056641	172.7024078369141	1451.632446289062	-0.2161170542240143	164.8010406494141	1180.083862304688	29.58405303955078	140.4654235839844	1151.289306640625	-63.14191055297852	308.5915832519531	935.2872314453125	-37.24434280395508	262.7131042480469	913.8704833984375	39.15315246582031	188.9739685058594	1105.507446289062	39.80847930908203	345.7897644042969	751.8677368164062	-57.61765289306641	356.0075988769531	829.8026733398438	-32.84815216064453	312.5900268554688	819.3773803710938	27.2990779876709	135.6021423339844	1715.49267578125	-165.9837188720703	305.9237365722656	1729.341186523438	-290.9914245605469	308.1018676757812	1728.32763671875	-192.0955047607422	123.9545745849609	1721.539184570312	-310.0118408203125	96.93125152587891	964.7188110351562	-421.1920471191406	165.2780303955078	953.3526611328125	-51.9713249206543	258.1143188476562	984.5306396484375	-138.8565673828125	218.0050506591797	1006.945739746094	-369.0262756347656	280.8851318359375	540.3384399414062	-403.3108215332031	207.9540100097656	667.9734497070312	-430.9723510742188	90.51194763183594	67.30896759033203	-392.5146789550781	163.3441314697266	308.2596435546875	-414.5718688964844	310.53466796875	49.563720703125	-341.0733337402344	253.6435852050781	61.58654022216797	-320.3215637207031	212.2637786865234	52.11834716796875	-417.5742797851562	26.75841331481934	84.01396942138672	-335.7506408691406	180.3243103027344	517.7539672851562	-113.9671249389648	190.0078582763672	787.0927734375	-61.32563018798828	53.65826797485352	39.14231872558594	-154.8974914550781	154.0248260498047	392.4126586914062	-118.7406616210938	282.5692749023438	41.75957870483398	-209.0528717041016	217.9804992675781	45.71527099609375	-234.7924346923828	206.0009613037109	37.76203155517578	-138.3764038085938	-4.899417877197266	42.0908088684082	-196.9067993164062	168.7052764892578	905.6366577148438	-481.2369384765625	nan	nan	nan	
279	2.78	36.90702438354492	1063.8740234375	-135.8350524902344	10.04263877868652	1060.408203125	-296.3386840820312	22.01862144470215	1129.339477539062	-221.3615417480469	260.1579284667969	1315.053833007812	-251.9654235839844	13.08028507232666	1272.894653320312	-217.2295074462891	63.10468292236328	1539.175659179688	-236.574462890625	220.8650665283203	1442.923950195312	-252.17724609375	21.57608985900879	1403.83544921875	-148.1195983886719	33.68190002441406	1498.065551757812	-331.6466979980469	127.4424285888672	1502.275756835938	-417.9770202636719	85.03579711914062	1379.240600585938	-491.1362609863281	77.28009033203125	1161.795288085938	-521.0809326171875	33.85537719726562	1148.617797851562	-425.5970764160156	84.83778381347656	893.7904663085938	-513.0355834960938	87.25811767578125	1045.733276367188	-530.4945678710938	193.5093536376953	722.4930419921875	-468.6640625	116.4902572631836	803.7977905273438	-517.9020385742188	185.2349548339844	813.3135986328125	-499.9659423828125	165.0679473876953	1524.140258789062	-74.3133544921875	165.5965728759766	1451.820678710938	0.08723042905330658	156.3618011474609	1180.394775390625	29.91866683959961	132.5236358642578	1151.652587890625	-62.82294082641602	298.5008544921875	934.3140869140625	-35.57142639160156	252.0670471191406	913.5028686523438	40.62271881103516	179.94287109375	1105.735107421875	40.3807258605957	334.1463317871094	750.4688110351562	-55.26772689819336	344.9186401367188	828.386474609375	-30.64886856079102	301.1228637695312	818.5294799804688	29.30011558532715	129.3703155517578	1715.731323242188	-165.7490539550781	299.7825012207031	1729.53759765625	-290.6334533691406	301.8769836425781	1728.50927734375	-191.7510833740234	117.8130416870117	1721.797607421875	-309.7938842773438	90.78392791748047	964.7593994140625	-420.9157409667969	159.9469909667969	953.6981201171875	-51.82732391357422	252.5412139892578	984.9849243164062	-138.9708709716797	211.8759460449219	1007.077453613281	-369.0757141113281	272.1263427734375	538.8492431640625	-404.2008361816406	199.9981384277344	667.4600219726562	-431.2552185058594	67.40099334716797	71.48342895507812	-392.0816955566406	147.8978881835938	309.8867492675781	-414.7183532714844	287.2568359375	47.78817749023438	-342.3201599121094	230.8018341064453	61.28735733032227	-321.1216430664062	188.4471282958984	53.09237289428711	-418.0798645019531	4.56196403503418	89.85819244384766	-334.8123474121094	177.2057647705078	518.2877197265625	-113.9230651855469	185.5848693847656	787.6199951171875	-61.1456184387207	53.59224700927734	38.99979019165039	-154.7765350341797	151.6469421386719	392.8506164550781	-118.6194534301758	282.465087890625	41.80544662475586	-209.030029296875	217.8855895996094	45.76441955566406	-234.7613983154297	205.9557342529297	37.78349304199219	-138.3702545166016	-4.930523872375488	41.82266235351562	-196.7897033691406	166.8966064453125	906.3582153320312	-481.3777770996094	nan	nan	nan	
280	2.79	31.19175910949707	1063.986083984375	-135.5895843505859	4.030197620391846	1060.490356445312	-296.05126953125	16.05683517456055	1129.4814453125	-221.1905517578125	254.0042877197266	1315.346069335938	-251.5816497802734	6.703267097473145	1273.016357421875	-217.4513397216797	56.95423126220703	1539.275756835938	-236.5986938476562	214.6239166259766	1443.162841796875	-251.8065185546875	15.06984329223633	1403.902465820312	-148.3530120849609	27.59716033935547	1498.166625976562	-331.8287658691406	121.5945281982422	1502.4345703125	-417.8604431152344	79.95122528076172	1379.287109375	-491.265625	73.73074340820312	1161.796752929688	-521.591796875	29.71146583557129	1148.20751953125	-426.4447021484375	83.45683288574219	893.8593139648438	-513.7382202148438	84.75704193115234	1045.82421875	-531.0667114257812	193.2259521484375	723.4136962890625	-468.7033386230469	115.8632507324219	804.1489868164062	-518.4583740234375	184.4115447998047	814.201416015625	-500.0060424804688	158.2483215332031	1524.287719726562	-74.07786560058594	158.4249572753906	1451.986328125	0.3265389204025269	147.8813934326172	1180.688598632812	30.18686294555664	124.5864639282227	1152.001953125	-62.58649063110352	288.3725280761719	933.3475952148438	-33.89853668212891	241.3617553710938	913.1465454101562	42.0568733215332	170.8324737548828	1105.954956054688	40.87918853759766	322.5047607421875	749.1058959960938	-52.89658355712891	333.8078918457031	826.9979858398438	-28.41946792602539	289.5969543457031	817.7113647460938	31.29841613769531	123.1281814575195	1715.935668945312	-165.5795745849609	293.6481018066406	1729.688842773438	-290.3349304199219	295.6392517089844	1728.636840820312	-191.4537506103516	111.6768646240234	1722.029663085938	-309.6398010253906	84.62580871582031	964.7396850585938	-420.6668701171875	154.695068359375	954.0469970703125	-51.76052856445312	246.9833221435547	985.4210205078125	-139.1473083496094	205.7453155517578	1007.152038574219	-369.1867370605469	263.0716857910156	537.2457885742188	-405.1152038574219	191.8133544921875	666.8493041992188	-431.5997619628906	44.23025894165039	75.99695587158203	-391.6715698242188	132.2624359130859	311.6246337890625	-414.8768005371094	263.7411499023438	46.20875549316406	-343.672607421875	207.8172454833984	61.2156982421875	-322.003662109375	164.4620361328125	54.37741088867188	-418.6497192382812	-17.63117980957031	96.04122924804688	-333.8990173339844	174.1775207519531	518.8078002929688	-113.911735534668	181.2542877197266	788.1466064453125	-61.00296783447266	53.52345657348633	38.85615158081055	-154.6477813720703	149.3568725585938	393.2761840820312	-118.5099639892578	282.3644104003906	41.83426284790039	-209.0138397216797	217.7890167236328	45.82472991943359	-234.7236022949219	205.9114074707031	37.80682754516602	-138.3644714355469	-4.97738790512085	41.58073425292969	-196.6667633056641	165.1611633300781	907.0816650390625	-481.4792175292969	nan	nan	nan	
